<?xml version="1.0" encoding="utf-8"?>
<!-- Generator: Adobe Illustrator 23.0.1, SVG Export Plug-In . SVG Version: 6.00 Build 0)  -->
<svg  version="1.1" id="Layer_1" xmlns="http://www.w3.org/2000/svg" xmlns:xlink="http://www.w3.org/1999/xlink" x="0px" y="0px"
	 viewBox="0 0 416 538.4" preserveAspectRatio="xMaxYMid meet" style="enable-background:new 0 0 416 538.4;" xml:space="preserve">
<style type="text/css">
	.st0{fill:#F4F6FA;}
</style>
<path id="bg_shape" class="st0" d="M0,0c0,0,98.4,74.9,77.9,183.5c-7,37,0.4,77.9,26.7,106c19,20.1,46.8,32,74.3,30
	c15.4-1.1,30-6.3,45.1-8.9c15.2-2.7,31.8-2.3,44.5,6.3c12.1,8.3,18.4,23.1,21.8,37.5c7.8,34.7,1.1,71.7,12.1,105.8
	c9.3,28.8,30.7,57.6,58.4,70.7c36.2,17.1,55.1,0,55.1,0V0H0z"/>
</svg>
