<svg xmlns="http://www.w3.org/2000/svg" width="192" height="192" viewBox="0 0 192 192">
  <g id="create_logistics_workflow" transform="translate(-79 -1842)">
    <rect id="Rectangle_1290" data-name="Rectangle 1290" width="192" height="192" transform="translate(79 1842)" fill="#fff"/>
    <g id="Group_6190" data-name="Group 6190" transform="translate(92.731 1850.709)">
      <path id="Path_12805" data-name="Path 12805" d="M39.23,127.592c-6.761,0-13.521.027-20.282-.009-4.072-.023-5.143-1.662-3.632-5.5,1.255-3.187,2.778-6.284,3.8-9.54a11.12,11.12,0,0,1,5.572-6.54c3.452-2.02,6.267-3.375,10.389-.893,3.4,2.049,7.6,1.177,11.015-1.2,1.431-.994,2.415-.671,3.89-.067A17.709,17.709,0,0,1,60.97,116.5a47.821,47.821,0,0,0,2.052,5.237c1.652,4.194.589,5.835-3.844,5.849C52.529,127.609,45.879,127.592,39.23,127.592Z" transform="translate(0 8.061)" fill="#3a208b"/>
      <path id="Path_12806" data-name="Path 12806" d="M117.929,128.235q-9.81,0-19.62,0c-4.96-.01-5.882-1.449-3.983-6.154a35.967,35.967,0,0,0,2.038-5.245c1.43-6.256,5.487-10.016,11.133-12.5a2.983,2.983,0,0,1,3.316.056c4.742,3.089,9.563,3.021,14.353.015.547-.344,1.157-1.095,1.756-.695,3.644,2.443,8.617,3.13,10.483,7.949,1.436,3.708,3.011,7.363,4.453,11.068,1.5,3.846.423,5.475-3.646,5.5C131.451,128.263,124.689,128.235,117.929,128.235Z" transform="translate(7.133 8.09)" fill="#3a208b"/>
      <path id="Path_12807" data-name="Path 12807" d="M78.735,65.945c-6.649,0-13.3.022-19.95-.009-4.277-.019-5.332-1.639-3.743-5.662A79.545,79.545,0,0,0,58.2,52.266c1.173-4.3,3.91-6.848,7.752-8.828,2.674-1.379,4.647-2.259,7.709-.386,3.805,2.326,8.17,1.8,11.968-.7,1.542-1.013,2.568-.708,4.173-.076,6.1,2.4,9.332,6.988,11,13.05a45.625,45.625,0,0,0,1.833,4.612c1.756,4.41.726,5.991-3.945,6C92.036,65.956,85.386,65.945,78.735,65.945Z" transform="translate(3.594 2.482)" fill="#3a208b"/>
      <path id="Path_12808" data-name="Path 12808" d="M66.821,27.862c.242-1.963.115-3.945.737-5.894,1.677-5.249,4.817-7.682,10.21-7.678s8.761,2.38,10.151,7.7c1.4,5.366,1.388,10.712-1.637,15.676-4.209,6.907-12.809,6.9-17.037.005A17.237,17.237,0,0,1,66.821,27.862Z" transform="translate(4.724 0)" fill="#3a208b"/>
      <path id="Path_12809" data-name="Path 12809" d="M105.882,90.146c.253-1.961.108-3.945.73-5.894,1.678-5.268,4.784-7.689,10.189-7.7s8.786,2.357,10.174,7.666c1.4,5.359,1.409,10.712-1.616,15.678-4.216,6.923-12.761,6.94-17.034.057A17.134,17.134,0,0,1,105.882,90.146Z" transform="translate(8.262 5.64)" fill="#3a208b"/>
      <path id="Path_12810" data-name="Path 12810" d="M27.172,89.318a25.946,25.946,0,0,1,.767-5.89c1.665-5.064,4.753-7.442,10.016-7.493,5.409-.052,8.836,2.3,10.248,7.563,1.47,5.477,1.467,10.945-1.684,15.979-4.205,6.718-12.63,6.671-16.868-.043A17.021,17.021,0,0,1,27.172,89.318Z" transform="translate(1.131 5.584)" fill="#3a208b"/>
      <path id="Path_12811" data-name="Path 12811" d="M44.475,32.12c5.053.972,10.007,1.974,14.985,2.846,1.369.241,1.265.959.984,1.866-1.494,4.82-3.009,9.634-4.535,14.51-.422-.217-.661-.258-.739-.393-3.289-5.647-3.34-5.706-8.225-1.275C39.6,56.338,34.194,64.041,34.366,74.77c-2.148-.691-2.749-2.36-3.313-3.961-2.711-7.7.079-14.368,4.265-20.592A38.316,38.316,0,0,1,45.431,39.767c2.035-1.383,2.018-2.446.694-4.171C45.414,34.671,44.478,33.782,44.475,32.12Z" transform="translate(1.387 1.615)" fill="#3a208b"/>
      <path id="Path_12812" data-name="Path 12812" d="M71.44,128.687a10.785,10.785,0,0,1-.31,1.393c-2.284,5.432-2.3,5.509,3.372,6.754,8.03,1.76,16,2,23.646-1.674a56.682,56.682,0,0,0,5.066-3.144c.111,4.023-2.133,6.542-4.67,8.694-4.688,3.976-10.411,5.192-16.382,5.314a38.075,38.075,0,0,1-13.7-1.892c-2.636-.946-3.581-.2-4.2,2.155a31.882,31.882,0,0,1-1.484,3.605c-2.455-5.152-4.61-9.792-6.881-14.376-.828-1.67.628-1.665,1.345-1.924C61.809,131.947,66.408,130.411,71.44,128.687Z" transform="translate(3.713 10.363)" fill="#3a208b"/>
      <path id="Path_12813" data-name="Path 12813" d="M128.4,63.807c-3.325,4.219-6.484,8.174-9.57,12.183-.759.987-1.264.925-2.056.079-3.452-3.683-6.945-7.327-10.4-10.965-.009.007.14-.21.3-.218,6.5-.306,6.457-.293,4.8-6.83A38.968,38.968,0,0,0,102.8,41.168a22.038,22.038,0,0,0-8.751-5.862c4.037-1.873,7.641-1.158,11.056.557,8.247,4.145,11.832,11.8,14.659,19.97.216.624.372,1.271.527,1.913.487,2.019.337,4.832,1.614,5.839S125.887,63.807,128.4,63.807Z" transform="translate(7.191 1.803)" fill="#3a208b"/>
    </g>
  </g>
</svg>
