<svg xmlns="http://www.w3.org/2000/svg" width="192" height="192" viewBox="0 0 192 192">
  <g id="live_trip_tracking" transform="translate(-280 -1842)">
    <rect id="Rectangle_1291" data-name="Rectangle 1291" width="192" height="192" transform="translate(280 1842)" fill="#fff"/>
    <g id="Group_6191" data-name="Group 6191" transform="translate(293.504 1850.659)">
      <path id="Path_12814" data-name="Path 12814" d="M82.871,153.6H81.323c-1.371-.239-2.1-1.434-3.163-2.125-.381-.347-.73-.727-1.1-1.082-.505-.525-1.024-1.036-1.543-1.547q-.529-.551-1.082-1.076c-.489-.5-.984-.988-1.479-1.477q-.534-.564-1.1-1.1c-.489-.5-.988-.991-1.485-1.483q-.534-.564-1.1-1.1a10.547,10.547,0,0,1-1.509-1.72,7.121,7.121,0,0,0-.805-.859,14.621,14.621,0,0,1-1.595-1.735,6.005,6.005,0,0,0-1.007-1.118,13.916,13.916,0,0,1-1.478-1.717c-.264-.309-.564-.585-.837-.886-.447-.7-1.076-1.247-1.556-1.916a4.727,4.727,0,0,0-.775-.909c-.528-.639-1.043-1.29-1.557-1.941a6.305,6.305,0,0,0-.767-.924c-.485-.66-.978-1.314-1.491-1.952-.309-.337-.56-.72-.834-1.084-.448-.576-.88-1.164-1.317-1.749-.209-.334-.492-.61-.723-.927-.459-.781-1.049-1.469-1.556-2.219-.246-.377-.5-.754-.762-1.118-.422-.668-.85-1.331-1.315-1.97a7.424,7.424,0,0,1-.769-1.128c-.391-.689-.859-1.329-1.292-1.991-.289-.421-.493-.893-.788-1.31-.366-.579-.776-1.131-1.092-1.742-.228-.4-.5-.771-.709-1.177-.362-.782-.894-1.468-1.26-2.247a9.912,9.912,0,0,0-.547-.874c-.432-.828-.834-1.671-1.267-2.5-.174-.368-.349-.735-.544-1.093-.348-.744-.739-1.466-1.1-2.2-.22-.486-.482-.952-.7-1.439-.208-.688-.582-1.306-.837-1.975a13.1,13.1,0,0,0-.719-1.641c-.253-.745-.607-1.451-.83-2.207a9.151,9.151,0,0,0-.475-1.178c-.286-.818-.553-1.642-.835-2.462-.138-.484-.317-.955-.47-1.435-.242-1-.57-1.973-.843-2.963-.228-.617-.262-1.278-.456-1.9-.2-.764-.332-1.543-.515-2.312a12.987,12.987,0,0,0-.268-1.577c-.116-.68-.295-1.348-.36-2.038a16.552,16.552,0,0,0-.27-2.112c.065-1.189-.222-2.352-.273-3.532-.035-.452.041-.906-.011-1.36a26.405,26.405,0,0,1,.1-3.433,7.977,7.977,0,0,0,.192-2.175c.218-1.341.286-2.7.6-4.03.17-.732.332-1.468.494-2.2.418-1.541.759-3.1,1.313-4.606.355-.753.557-1.56.834-2.34a63.126,63.126,0,0,1,3.592-7.257c1.018-1.589,2.05-3.171,3.165-4.694a54.792,54.792,0,0,1,9.385-9.383c1.538-1.1,3.087-2.181,4.707-3.157A62.424,62.424,0,0,1,63.8,24.577c.821-.283,1.654-.529,2.449-.888A43.318,43.318,0,0,1,78.6,21.4c5.725-.14,11.407-.137,16.952,1.544.513.178,1.026.362,1.544.524.828.308,1.672.571,2.512.847.457.176.923.327,1.372.524q1.173.465,2.3,1.039.7.385,1.418.722c.67.36,1.373.657,2.008,1.081a11.517,11.517,0,0,0,1.351.75c.682.42,1.336.884,2,1.325.374.255.746.514,1.1.8a20.881,20.881,0,0,1,1.775,1.294A13.251,13.251,0,0,0,114,32.68a11.46,11.46,0,0,0,1.739,1.494c.376.345.724.72,1.1,1.071.505.523,1.021,1.033,1.541,1.541a9.113,9.113,0,0,1,.8.886c.429.729,1.152,1.212,1.609,1.916.32.463.685.891,1.007,1.354.449.578.886,1.166,1.322,1.755.249.377.5.756.756,1.127a16.8,16.8,0,0,1,1.242,2.05c.159.3.361.584.548.871.435.83.837,1.675,1.271,2.5.177.375.358.746.56,1.109.42.809.72,1.668,1.074,2.5.157.465.3.934.478,1.392.267.834.55,1.662.835,2.49.188.543.29,1.111.463,1.66.184.828.431,1.64.6,2.472.06.4.159.79.241,1.185.192,1.1.308,2.21.521,3.305a13.383,13.383,0,0,0,.225,2.588,13.177,13.177,0,0,1,.1,2.243c.034.452-.041.9.008,1.357a17.277,17.277,0,0,1-.1,2.723,14.123,14.123,0,0,0-.23,2.625c-.234,1.262-.3,2.549-.559,3.809-.2.8-.353,1.613-.489,2.426-.274,1.462-.681,2.89-1.072,4.322-.245.888-.5,1.774-.791,2.65-.685,1.891-1.227,3.833-2.042,5.676-.4.86-.7,1.763-1.076,2.631-1.056,2.342-2.2,4.643-3.343,6.939-.578,1.151-1.226,2.265-1.836,3.4-1.858,3.257-3.855,6.429-5.945,9.541-1.12,1.649-2.267,3.28-3.386,4.93-3.338,4.423-6.738,8.8-10.4,12.955a205.61,205.61,0,0,1-16.294,16.653A6.359,6.359,0,0,1,82.871,153.6Z" transform="translate(0)" fill="#f54e48"/>
      <path id="Path_12815" data-name="Path 12815" d="M70.152,50.022h18.2a2.579,2.579,0,0,1,2.954,2.24,11.171,11.171,0,0,1,.34,3.062c.007,9.98-.015,19.959.03,29.939,0,1.047-.308,1.259-1.289,1.252q-9.356-.066-18.711,0a1.621,1.621,0,0,1-1.891-1.41c-.852-3.278-3.276-4.944-6.378-5.655a7.322,7.322,0,0,0-7.829,2.971,12.851,12.851,0,0,0-1.753,3.284,1.1,1.1,0,0,1-1.251.8,8.425,8.425,0,0,1-2.67-.326,2.39,2.39,0,0,1-1.7-1.922c-.131-1.047-.111-2.137.961-2.736A2.7,2.7,0,0,0,50.5,78.748c-.048-9.161-.009-18.324-.049-27.486,0-1,.228-1.273,1.251-1.266C57.85,50.049,64,50.022,70.152,50.022Z" transform="translate(1.919 3.438)" fill="#fefefe"/>
      <path id="Path_12816" data-name="Path 12816" d="M89.183,80.7c0-6.962.009-13.708-.013-20.456,0-.665.164-.886.853-.879,3.182.034,6.365,0,9.548.022a3.518,3.518,0,0,1,3.043,1.668,38.177,38.177,0,0,1,4.817,10.336,3.848,3.848,0,0,1,.076,1.025c.006,3.827-.04,7.656.03,11.482.021,1.119-.437,1.468-1.416,1.466-.43,0-.863-.045-1.289-.008a1.107,1.107,0,0,1-1.328-1.018,6.517,6.517,0,0,0-.647-1.534c-2.615-4.956-7.095-6.186-11.892-3.267C90.423,79.869,89.9,80.233,89.183,80.7Z" transform="translate(6.841 4.562)" fill="#fefefe"/>
      <path id="Path_12817" data-name="Path 12817" d="M101.361,85.4c-.011,3.94-2.863,6.98-6.464,6.893a6.424,6.424,0,0,1-5.8-5.337c-.979-4.384,2.044-8.654,6.113-8.633C98.669,78.341,101.372,81.449,101.361,85.4Z" transform="translate(6.809 6.836)" fill="#fefefe"/>
      <path id="Path_12818" data-name="Path 12818" d="M61.187,92.293c-3.736.01-6.779-3.75-6.247-7.721.472-3.516,2.832-6.057,5.8-6.246,3.846-.244,7.1,3.48,6.639,7.6C66.963,89.67,64.42,92.284,61.187,92.293Z" transform="translate(2.727 6.835)" fill="#fefefe"/>
      <path id="Path_12819" data-name="Path 12819" d="M99.984,37.541a2.444,2.444,0,0,0-1.276-.791,5.6,5.6,0,0,0-1.828-1.014,4.478,4.478,0,0,0-1.534-.748,5.594,5.594,0,0,0-2.011-.829,4.881,4.881,0,0,0-1.856-.708,6.624,6.624,0,0,0-1.994-.591,4.577,4.577,0,0,0-1.634-.43,12.264,12.264,0,0,0-3.339-.59,2.1,2.1,0,0,0-1.3-.189l-1.194-.083c-.221-.035-.44-.052-.661-.078-.17-.022-.34-.045-.511-.06a18.8,18.8,0,0,0-3.88.041,2.4,2.4,0,0,0-.82.1l-1.194.083a9.127,9.127,0,0,0-2.5.361.744.744,0,0,0-.377.091,14.7,14.7,0,0,0-4.352,1.056,6.538,6.538,0,0,0-2.316.769c.032.074.113.194.092.215h0c-.026-.065-.049-.127-.091-.216A27.962,27.962,0,0,0,58.5,37.264c-1.551.986-1.662,2.715-.4,4.181a1.478,1.478,0,0,0,1.113.7,2.375,2.375,0,0,0,2.186-.2c1.253-.687,2.5-1.384,3.75-2.078l2.344-.933,5.141-1.444,2.086-.345a1.236,1.236,0,0,0,.571-.094l1.215-.08,5.415.01.974.065h0a3.389,3.389,0,0,0,1.613.222l2.741.564a1.3,1.3,0,0,0,.2.058l1.2.36h0l2.562.839a2.8,2.8,0,0,0,1.292.525l2.21,1.067,1.164.664c.283.187.553.4.851.557a2.775,2.775,0,0,0,3.651-.721A2.6,2.6,0,0,0,99.984,37.541ZM78.119,32.286a1,1,0,0,0,.212-.3l.073.105-.875.819C77.726,32.7,77.919,32.49,78.119,32.286Z" transform="translate(3.01 1.201)" fill="#f1f1f1"/>
      <path id="Path_12820" data-name="Path 12820" d="M105.276,97.259a1.694,1.694,0,0,0-.734-1.278c-1.458-1.242-3.193-1.175-4.186.335-2.865,4.35-5.927,8.557-9,12.76l-7.3,8.794q-2.147,2.332-4.3,4.661c-.522.184-.643-.41-1.012-.522q-.815-.889-1.631-1.775l-.961-1.043-1.593-1.786a1.88,1.88,0,0,0-.722-.81,8.959,8.959,0,0,0-1.538-1.8l-.679-.806-1.664-2.025-.659-.814a11.028,11.028,0,0,0-1.621-2.044,2.591,2.591,0,0,0-.806-1.042,10.131,10.131,0,0,0-1.543-2.045,2.626,2.626,0,0,0-.778-1.06,7.506,7.506,0,0,0-1.285-1.78,2.617,2.617,0,0,0-.769-1.075l-1.362-2.01-.726-1.042L59.076,97a1.876,1.876,0,0,0-.749-.991,2.633,2.633,0,0,0-3.76-.039c-1.114,1.057-1.152,2.412-.106,3.872a2.783,2.783,0,0,0,.743,1.145,7.984,7.984,0,0,0,1.315,1.957,2.624,2.624,0,0,0,.757,1.114,8.53,8.53,0,0,0,1.359,1.962l.746,1.042a7.9,7.9,0,0,0,1.306,1.8l.764,1.023a10.536,10.536,0,0,0,1.567,2.071l.765.995a8.472,8.472,0,0,0,1.5,1.871,2.58,2.58,0,0,0,.811,1.018,8.112,8.112,0,0,0,1.512,1.821,2.675,2.675,0,0,0,.82.995l1.562,1.819a1.879,1.879,0,0,0,.732.824,8.055,8.055,0,0,0,1.562,1.768,3.478,3.478,0,0,0,1.01,1.1,8.118,8.118,0,0,0,1.6,1.733,1.846,1.846,0,0,0,.753.788,9.256,9.256,0,0,0,1.767,1.82,1.316,1.316,0,0,0,.831.687h0a2.62,2.62,0,0,0,3.372-.636c1.637-1.7,3.286-3.4,4.866-5.153a136.755,136.755,0,0,0,9.843-11.892,51.246,51.246,0,0,0,4.2-5.7c1.563-1.942,2.825-4.092,4.25-6.13A2.741,2.741,0,0,0,105.276,97.259Z" transform="translate(2.586 8.85)" fill="#f3f3f2"/>
      <path id="Path_12821" data-name="Path 12821" d="M103.316,68.262c-3.6,0-6.948-.013-10.3.012-.619,0-.815-.186-.8-.806q.059-2.448,0-4.9c-.016-.657.165-.918.859-.9,1.8.038,3.609.021,5.413.01a2.117,2.117,0,0,1,1.977,1.21C101.405,64.609,102.307,66.352,103.316,68.262Z" transform="translate(7.206 4.838)" fill="#f54e48"/>
      <path id="Path_12822" data-name="Path 12822" d="M92.182,84.843A2.581,2.581,0,1,1,94.7,87.735,2.718,2.718,0,0,1,92.182,84.843Z" transform="translate(7.202 7.278)" fill="#f54e48"/>
      <path id="Path_12823" data-name="Path 12823" d="M63.3,84.914a2.644,2.644,0,0,1-2.551,2.821A2.7,2.7,0,0,1,58.2,84.766a2.564,2.564,0,1,1,5.1.148Z" transform="translate(3.126 7.278)" fill="#f54e48"/>
    </g>
  </g>
</svg>
