<svg xmlns="http://www.w3.org/2000/svg" width="192" height="192" viewBox="0 0 192 192">
  <g id="manage_logistics_effectively" transform="translate(-683 -1842)">
    <rect id="Rectangle_1293" data-name="Rectangle 1293" width="192" height="192" transform="translate(683 1842)" fill="#fff"/>
    <g id="Group_6193" data-name="Group 6193" transform="translate(701.22 1863.86)">
      <path id="Path_12830" data-name="Path 12830" d="M90.268,40.034c.01-2.148-.7-2.536-2.637-2.519-10.048.088-20.1,0-30.147.079a5.407,5.407,0,0,1-4.314-1.782,26.679,26.679,0,0,0-39.354,1.408c-3.479,4.022-5.158,8.809-6.4,13.831v6.84c.126.158.337.3.365.474a25.959,25.959,0,0,0,15,20.267,2.414,2.414,0,0,1,1.445,2.641c-.046,5.7.06,11.4-.065,17.093-.042,1.9.458,2.419,2.4,2.411q30.613-.116,61.228-.008c1.8.005,2.485-.263,2.476-2.306Q90.136,69.25,90.268,40.034ZM34.181,75.446A20.9,20.9,0,1,1,55.234,54.68C55.28,66.029,45.734,75.443,34.181,75.446Z" transform="translate(0 0)" fill="#2565f9"/>
      <path id="Path_12831" data-name="Path 12831" d="M49.983,120.26l.51-.722c1.506.358,1.3,1.414,1.024,2.5l-.265-.049c-.831.629-1.847.736-2.4-.086C48.138,120.85,49.811,120.976,49.983,120.26Z" transform="translate(0.249 0.555)" fill="#2565f9"/>
      <path id="Path_12832" data-name="Path 12832" d="M37.67,49.075c-.123,5.381-1.122,10.323-5.421,15.112-1.234,1.375-2.133,3.047-3.33,4.462a2.6,2.6,0,0,1-3.85.488c-1.36-1.053-.746-2.295.2-3.18,7.068-6.631,8.156-15.019,7.214-24.039a17.855,17.855,0,0,1,.005-2.477,2.206,2.206,0,0,1,2.365-2.322,2.239,2.239,0,0,1,2.624,2.369C37.529,42.858,37.739,46.037,37.67,49.075Z" transform="translate(0.102 0.056)" fill="#2565f9"/>
      <path id="Path_12833" data-name="Path 12833" d="M105.785,78.044c8.539.012,17.08.036,25.619.018.753,0,1.672.4,2.231-.532,1.068,1.766-.589,1.137-1.121,1.144-4.513.055-9.028.031-13.542.03-3.591,0-7.182.041-10.771-.031C107.395,78.657,106.321,79.245,105.785,78.044Z" transform="translate(0.595 0.301)" fill="#2565f9"/>
      <path id="Path_12834" data-name="Path 12834" d="M147.291,77.919a4.8,4.8,0,0,0-1.311-3.3q-10.914-13.138-21.742-26.345a3.875,3.875,0,0,0-3.421-1.541c-7.356.065-14.713.117-22.068-.023-2.192-.042-2.772.6-2.749,2.753.108,9.841.047,19.684.05,29.527,0,10.049-.039,20.1.039,30.149.014,1.917-.333,2.734-2.525,2.678-6.212-.162-12.432-.1-18.647-.025a3.174,3.174,0,0,1-3.131-1.817,14.377,14.377,0,0,0-24.73-.11,3.685,3.685,0,0,1-3.707,1.931c-7.044-.078-14.095.1-21.134-.1-2.766-.078-2.228,1.514-2.328,3.117-.111,1.782.074,2.79,2.381,2.729,6.626-.175,13.261,0,19.891-.1,1.813-.027,2.632.331,2.985,2.344,1.329,7.578,7.078,12.28,14.494,12.162a14.344,14.344,0,0,0,14.119-12.357c.264-1.653.628-2.17,2.336-2.154,9.531.087,19.065.109,28.595-.011,1.919-.025,2.378.62,2.655,2.36a14.031,14.031,0,0,0,12.337,12.049,14.643,14.643,0,0,0,15.462-8.956c.779-1.773-.191-4.517,1.975-5.256,1.857-.633,4.1-.139,6.171-.143a10.941,10.941,0,0,1,1.552.01c1.779.255,2.49-.208,2.471-2.27C147.2,102.785,147.233,90.351,147.291,77.919Zm-14.381.671c-8.59.005-17.18.037-25.771,0a1.663,1.663,0,0,1-.834-.355c-.022-5.795,0-11.591-.095-17.384-.022-1.419.271-2.185,1.836-1.918a1.6,1.6,0,0,0,.311,0c10.555-.3,10.558-.3,17.1,7.882q4.357,5.445,8.7,10.9C134.232,78.706,133.487,78.589,132.909,78.59Z" transform="translate(0.075 0.114)" fill="#2565f9"/>
    </g>
  </g>
</svg>
